<svg xmlns="http://www.w3.org/2000/svg" width="21" height="16.969" viewBox="0 0 21 16.969">
  <defs>
    <style>
      .cls-1 {
        fill: #fff;
        fill-rule: evenodd;
      }
    </style>
  </defs>
  <path id="Twitter" class="cls-1" d="M1400.63,742.68s1.61-1.3,1.73-2.362a6.865,6.865,0,0,1-2.72,1.041,4.3,4.3,0,0,0-4.3-1.194c-2.8.66-3.39,3.785-3.06,5.03a12.5,12.5,0,0,1-8.83-4.42,4.3,4.3,0,0,0,1.4,5.715,4.435,4.435,0,0,1-1.96-.508,4.247,4.247,0,0,0,3.49,4.217,4.93,4.93,0,0,1-1.99.178,4.447,4.447,0,0,0,4.02,2.871,8.993,8.993,0,0,1-6.41,1.8,12,12,0,0,0,9.01,1.694q0.375-.079.75-0.186a12.63,12.63,0,0,0,7.73-6.226q0.15-.3.3-0.624a11.753,11.753,0,0,0,1.07-5.53,8.174,8.174,0,0,0,2.14-2.16A9.125,9.125,0,0,1,1400.63,742.68Z" transform="translate(-1382 -740.031)"/>
</svg>
